<svg aria-hidden="true" style="position:absolute;width:0;height:0;overflow:hidden" xmlns="http://www.w3.org/2000/svg">
  <defs>
  <symbol id="vector-left" viewBox="0 0 24 24">
    <path d="M7.28 7.72a.75.75 0 0 1 0 1.06l-2.47 2.47H21a.75.75 0 0 1 0 1.5H4.81l2.47 2.47a.749.749 0 1 1-1.06 1.06l-3.75-3.75a.75.75 0 0 1 0-1.06l3.75-3.75a.75.75 0 0 1 1.06 0Z"/>
  </symbol >

  <symbol id="arrow-left" viewBox="0 0 24 24">
    <path d="M7.72 12.53a.75.75 0 0 1 0-1.06l7.5-7.5a.75.75 0 0 1 1.06 1.06L9.31 12l6.97 6.97a.75.75 0 1 1-1.06 1.06l-7.5-7.5Z"/>
  </symbol>

  <symbol id="arrow-right" viewBox="0 0 24 24">
      <path d="M16.28 11.47a.75.75 0 0 1 0 1.06l-7.5 7.5a.75.75 0 0 1-1.06-1.06L14.69 12 7.72 5.03a.75.75 0 1 1 1.06-1.06l7.5 7.5Z"/>
  </symbol>

  <symbol id="arrow-up" viewBox="0 0 24 24">
    <path d="M11.47 7.72a.75.75 0 0 1 1.06 0l7.5 7.5a.75.75 0 0 1-1.06 1.06L12 9.31l-6.97 6.97a.748.748 0 0 1-1.244-.23.75.75 0 0 1 .184-.83l7.5-7.5Z"/>
  </symbol>
  
  <symbol id="arrow-down" viewBox="0 0 24 24">
    <path d="M12.53 16.28a.75.75 0 0 1-1.06 0l-7.5-7.5a.75.75 0 0 1 1.06-1.06L12 14.69l6.97-6.97a.75.75 0 1 1 1.06 1.06l-7.5 7.5Z"/>
  </symbol>

  <symbol id="eye-show" viewBox="0 0 24 24">
    <path d="M21.924 11.52C20.497 7.02 16.513 4 12.004 4c-4.507 0-8.51 3.02-9.928 7.52a1.65 1.65 0 0 0 0 .96C3.503 16.98 7.488 20 12.005 20s8.502-3.02 9.929-7.52a1.65 1.65 0 0 0 0-.96h-.01Zm-.903.64C19.727 16.25 16.104 19 11.995 19c-4.108 0-7.722-2.75-9.015-6.84a.463.463 0 0 1 0-.32C4.273 7.75 7.896 5 12.005 5c4.108 0 7.732 2.75 9.025 6.84a.61.61 0 0 1 0 .32h-.01Z"/>
    <path d="M9.525 9.503a3.487 3.487 0 0 0-1.02 2.477c0 .933.36 1.815 1.02 2.487a3.441 3.441 0 0 0 2.48 1.033c.94 0 1.81-.361 2.48-1.033a3.493 3.493 0 0 0 1.02-2.487 3.51 3.51 0 0 0-1.02-2.487c-1.33-1.324-3.63-1.324-4.95 0l-.01.01Zm4.24 4.252c-.95.953-2.59.943-3.54 0a2.499 2.499 0 0 1-.73-1.775 2.499 2.499 0 0 1 4.27-1.775c.47.471.73 1.103.73 1.775 0 .672-.26 1.304-.73 1.775Z"/>
  </symbol>

  <symbol id="eye-hide" viewBox="0 0 24 24">
    <path d="M14.48 19.15c-.8.23-1.63.35-2.48.35-4.1 0-7.73-2.75-9.02-6.84a.58.58 0 0 1 0-.32c.35-1.09.86-2.09 1.5-2.96.15-.2.12-.47-.05-.65a.48.48 0 0 0-.37-.14c-.13.01-.27.08-.35.19-.7.95-1.26 2.04-1.63 3.23-.1.31-.1.65 0 .96h-.01c1.43 4.5 5.41 7.52 9.93 7.52.95 0 1.87-.14 2.76-.39.17-.05.3-.18.34-.35.04-.17 0-.35-.13-.48a.494.494 0 0 0-.49-.13v.01ZM21.93 12.98c.1-.31.1-.65 0-.96C20.5 7.52 16.51 4.5 12 4.5c-2.03 0-3.96.62-5.59 1.7L3.35 3.15c-.2-.2-.51-.2-.7 0-.19.19-.19.51 0 .7l18.01 18.01a.485.485 0 0 0 .7 0c.19-.19.19-.51 0-.7L18.4 18.2c1.6-1.3 2.86-3.09 3.53-5.22Zm-7.85.9-3.47-3.47a2.474 2.474 0 0 1 3.16.31c.47.47.73 1.1.73 1.78 0 .5-.15.99-.42 1.39v-.01Zm.71.71c.45-.61.71-1.33.71-2.1 0-.94-.36-1.82-1.02-2.49-1.21-1.21-3.22-1.3-4.57-.3L7.13 6.92a9.12 9.12 0 0 1 4.88-1.42c4.1 0 7.73 2.75 9.02 6.84.03.1.03.22 0 .32a10.01 10.01 0 0 1-3.32 4.84l-2.91-2.91h-.01Z"/>
  </symbol>

  <symbol id="logout" viewBox="0 0 24 24">
    <path d="M5.555 3.305A2.75 2.75 0 0 1 7.5 2.5h6a2.75 2.75 0 0 1 2.75 2.75V9a.5.5 0 0 1-1 0V5.25A1.75 1.75 0 0 0 13.5 3.5h-6a1.75 1.75 0 0 0-1.75 1.75v13.5A1.75 1.75 0 0 0 7.5 20.5h6a1.75 1.75 0 0 0 1.75-1.75V15a.5.5 0 0 1 1 0v3.75a2.75 2.75 0 0 1-2.75 2.75h-6a2.75 2.75 0 0 1-2.75-2.75V5.25c0-.73.29-1.429.805-1.945Zm12.841 5.341a.5.5 0 0 1 .708 0l3 3a.5.5 0 0 1 0 .708l-3 3a.5.5 0 0 1-.708-.708l2.147-2.146H9a.5.5 0 0 1 0-1h11.543l-2.147-2.146a.5.5 0 0 1 0-.708Z"/>
  </symbol>

  <symbol id="upload" viewBox="0 0 24 24">
    <path d="M11.646 2.646a.5.5 0 0 1 .708 0l4.5 4.5a.5.5 0 0 1-.708.708L12.5 4.207V16.5a.5.5 0 0 1-1 0V4.207L7.854 7.854a.5.5 0 1 1-.708-.708l4.5-4.5ZM3 16a.5.5 0 0 1 .5.5v2.25a1.75 1.75 0 0 0 1.75 1.75h13.5a1.75 1.75 0 0 0 1.75-1.75V16.5a.5.5 0 0 1 1 0v2.25a2.75 2.75 0 0 1-2.75 2.75H5.25a2.75 2.75 0 0 1-2.75-2.75V16.5A.5.5 0 0 1 3 16Z"/>
  </symbol>

  <symbol id="edit" viewBox="0 0 24 24">
    <path d="m18.903 3.153-1.334 1.334 1.945 1.944 1.333-1.334a1.375 1.375 0 1 0-1.944-1.944Zm-.097 3.985-1.944-1.944-8.578 8.578a4 4 0 0 0-1.005 1.686l-.536 1.799 1.8-.536a4 4 0 0 0 1.686-1.005l8.577-8.577ZM16.51 4.133l1.686-1.687a2.376 2.376 0 0 1 3.36 3.359l-10.62 10.619a5.001 5.001 0 0 1-2.107 1.255l-2.685.8a.5.5 0 0 1-.622-.622l.8-2.685a5 5 0 0 1 1.255-2.107l8.933-8.932ZM5.25 6.5A1.75 1.75 0 0 0 3.5 8.25v10.5a1.75 1.75 0 0 0 1.75 1.75h10.5a1.75 1.75 0 0 0 1.75-1.75V14a.5.5 0 0 1 1 0v4.75a2.75 2.75 0 0 1-2.75 2.75H5.25a2.75 2.75 0 0 1-2.75-2.75V8.25A2.75 2.75 0 0 1 5.25 5.5H10a.5.5 0 0 1 0 1H5.25Z"/>
  </symbol>

  <symbol id="minus" viewBox="0 0 24 24">
      <path d="M5.25 12a.75.75 0 0 1 .75-.75h12a.75.75 0 1 1 0 1.5H6a.75.75 0 0 1-.75-.75Z"/>
  </symbol>

  <symbol id="plus" viewBox="0 0 24 24">
    <path d="M12 5.5a.5.5 0 0 1 .5.5v5.5H18a.5.5 0 0 1 0 1h-5.5V18a.5.5 0 0 1-1 0v-5.5H6a.5.5 0 0 1 0-1h5.5V6a.5.5 0 0 1 .5-.5Z"/>
  </symbol>

  <symbol id="plus-circle" viewBox="0 0 24 24">
    <path d="M12 3.5a8.5 8.5 0 1 0 0 17 8.5 8.5 0 0 0 0-17ZM5.282 5.282a9.5 9.5 0 1 1 13.435 13.435A9.5 9.5 0 0 1 5.282 5.282ZM12 8.5a.5.5 0 0 1 .5.5v2.5H15a.5.5 0 0 1 0 1h-2.5V15a.5.5 0 0 1-1 0v-2.5H9a.5.5 0 0 1 0-1h2.5V9a.5.5 0 0 1 .5-.5Z"/>
  </symbol>

  <symbol id="icon-plus" viewBox="0 0 24 24">
    <path d="M12 22c-1.32 0-2.61-.26-3.83-.76a9.718 9.718 0 0 1-3.24-2.17 10.18 10.18 0 0 1-2.17-3.25A9.876 9.876 0 0 1 2 11.99c0-2.67 1.04-5.18 2.93-7.07A9.964 9.964 0 0 1 12 2c2.67 0 5.18 1.04 7.07 2.93A9.932 9.932 0 0 1 22 12c0 1.32-.26 2.61-.76 3.83a9.718 9.718 0 0 1-2.17 3.24c-.93.93-2.03 1.66-3.24 2.17-1.22.51-2.51.76-3.83.76Zm0-18c-2.14 0-4.15.83-5.66 2.34A8.05 8.05 0 0 0 4 12c0 1.06.21 2.09.61 3.06.4.97.99 1.85 1.73 2.6.75.75 1.62 1.33 2.6 1.73 1.95.81 4.17.81 6.12 0 .97-.4 1.85-.99 2.6-1.73.75-.75 1.33-1.62 1.73-2.6.4-.98.61-2 .61-3.06 0-2.11-.85-4.17-2.34-5.66A7.949 7.949 0 0 0 12 4Zm0 12c-.55 0-1-.45-1-1v-2H9c-.55 0-1-.45-1-1s.45-1 1-1h2V9c0-.55.45-1 1-1s1 .45 1 1v2h2c.55 0 1 .45 1 1s-.45 1-1 1h-2v2c0 .55-.45 1-1 1Z"/>
  </symbol>

  <symbol id="settings" viewBox="0 0 24 24">
    <path d="M13.39 21H10.8c-.8 0-1.47-.57-1.6-1.36l-.21-1.28a.738.738 0 0 0-.39-.51l-.24-.14c-.21-.12-.44-.16-.64-.08l-1.22.46c-.36.14-.76.14-1.12 0-.36-.13-.67-.38-.86-.72l-1.3-2.24c-.19-.33-.26-.72-.19-1.1.07-.38.27-.72.57-.96l1-.83c.16-.13.25-.35.25-.6v-.28c0-.24-.09-.46-.25-.59l-1-.83c-.29-.24-.5-.59-.57-.96-.07-.38 0-.77.19-1.1l1.3-2.25c.19-.33.5-.59.86-.72s.76-.13 1.12 0l1.22.46c.2.07.43.04.64-.08l.23-.14c.22-.12.36-.31.4-.51l.21-1.28C9.33 2.57 10 2 10.8 2h2.59c.8 0 1.47.57 1.6 1.36l.21 1.28c.04.21.18.4.39.51.08.04.16.09.24.14.21.12.45.16.64.08l1.22-.46c.36-.14.76-.14 1.12 0 .36.13.67.38.86.72l1.3 2.25c.19.33.26.73.19 1.1-.07.38-.27.72-.57.96l-1 .83c-.16.13-.25.35-.25.6v.27c0 .25.09.46.25.6l1.01.83c.61.51.77 1.38.37 2.07l-1.3 2.25c-.19.33-.5.59-.86.72s-.76.13-1.12 0l-1.22-.46a.774.774 0 0 0-.64.08c-.08.05-.16.09-.24.14-.21.12-.36.31-.39.51l-.21 1.28a1.62 1.62 0 0 1-1.6 1.36V21Zm-5.46-4.41c.32 0 .64.09.93.27l.21.12c.48.27.81.71.89 1.22l.21 1.28c.05.3.31.52.62.52h2.59c.31 0 .57-.22.62-.52l.21-1.28c.08-.51.41-.96.89-1.22l.2-.12c.48-.29 1.03-.35 1.51-.17l1.22.46c.14.05.29.05.43 0s.26-.15.33-.28l1.3-2.25c.15-.26.09-.6-.15-.79l-1-.83c-.4-.33-.62-.83-.61-1.38v-.24c0-.55.21-1.06.61-1.38l1-.83a.62.62 0 0 0 .15-.79l-1.3-2.25a.607.607 0 0 0-.33-.28.635.635 0 0 0-.43 0l-1.22.46c-.49.18-1.03.12-1.51-.16-.07-.04-.13-.08-.2-.12-.49-.27-.82-.72-.9-1.23l-.21-1.28a.624.624 0 0 0-.62-.52h-2.59c-.31 0-.57.22-.62.52L9.95 4.8c-.08.51-.41.96-.9 1.22l-.2.12c-.48.29-1.03.35-1.51.17l-1.22-.46a.635.635 0 0 0-.43 0c-.14.05-.26.15-.33.28l-1.3 2.25c-.07.13-.1.28-.07.42.03.15.1.28.22.37l1 .83c.4.33.62.83.61 1.38v.23c0 .56-.21 1.06-.61 1.39l-1 .83c-.11.09-.19.23-.22.37-.03.15 0 .3.07.42l1.3 2.25c.07.13.19.23.33.28.14.05.29.05.43 0l1.22-.46c.19-.07.38-.1.58-.1h.01Z"/>
    <path d="M12.09 15c-.94 0-1.82-.36-2.48-1.02a3.478 3.478 0 0 1-1.02-2.48c0-.94.37-1.82 1.02-2.47 1.3-1.3 3.65-1.3 4.95 0 .65.65 1.03 1.55 1.03 2.47 0 .92-.37 1.82-1.03 2.48A3.49 3.49 0 0 1 12.09 15Zm0-6c-.66 0-1.3.27-1.77.73-.47.46-.73 1.11-.73 1.77 0 .66.26 1.3.73 1.77.94.94 2.6.94 3.54 0 .47-.47.73-1.11.73-1.77 0-.66-.27-1.3-.73-1.77-.46-.47-1.11-.73-1.77-.73Z"/>
  </symbol>

  <symbol id="trash" viewBox="0 0 24 24">
    <path d="M9.18 8.59h-.02c-.28.01-.5.24-.49.51l.36 8.78c.01.26.24.47.51.47h.02c.28-.01.5-.24.49-.51l-.36-8.78a.505.505 0 0 0-.51-.47Z"/>
    <path d="M20.57 5.62c-.35-.06-.7-.11-1.06-.16h-.01c-1.04-.15-2.09-.27-3.13-.35v-.44c0-1.44-1.16-2.6-2.65-2.64-1.14-.03-2.3-.03-3.44 0-1.48.04-2.65 1.2-2.65 2.64v.44c-1.04.09-2.09.2-3.14.35h-.01c-.35.05-.7.1-1.06.16-.28.05-.47.3-.42.56.05.27.32.44.59.4.16-.03.33-.05.49-.08l1.06 13.02c.05.68.37 1.3.9 1.76.52.46 1.2.71 1.92.71h8.06c.71 0 1.39-.25 1.92-.71.53-.46.84-1.09.9-1.76L19.9 6.5c.16.03.33.05.49.08.28.04.55-.13.59-.4a.488.488 0 0 0-.42-.56h.01ZM8.65 4.66c0-.9.73-1.63 1.65-1.66 1.12-.04 2.26-.04 3.38 0 .93.03 1.65.76 1.65 1.66v.37c-1.11-.07-2.23-.1-3.34-.1-1.11 0-2.23.04-3.34.1v-.37Zm9.16 14.79c-.03.43-.24.83-.57 1.12-.33.29-.77.45-1.22.45H7.97c-.45 0-.89-.16-1.22-.45-.33-.29-.54-.69-.57-1.12L5.12 6.36c1.02-.14 2.05-.24 3.06-.32h.01c2.53-.18 5.09-.18 7.62 0 1.01.07 2.04.18 3.06.32l-1.06 13.09Z"/>
    <path d="M14.84 8.59c-.32 0-.52.2-.53.47l-.36 8.78c-.01.27.21.5.49.51h.02c.28 0 .5-.21.51-.47l.36-8.78c.01-.27-.21-.5-.49-.51Z"/>
  </symbol>

  <symbol id="user" viewBox="0 0 24 24">
    <path d="M12 0C5.37 0 0 5.37 0 12s5.37 12 12 12 12-5.37 12-12S18.63 0 12 0Zm0 23C5.92 23 1 18.08 1 12S5.92 1 12 1s11 4.92 11 11-4.92 11-11 11Z"/>
    <path d="M12 10.65c.93 0 1.82-.38 2.48-1.05.66-.67 1.02-1.58 1.02-2.52s-.37-1.85-1.02-2.52A3.483 3.483 0 0 0 12 3.51c-.93 0-1.82.38-2.48 1.05-.66.67-1.02 1.58-1.02 2.52s.37 1.85 1.02 2.52c.66.67 1.55 1.05 2.48 1.05Zm-1.76-5.4c.47-.48 1.1-.75 1.76-.75.66 0 1.29.27 1.76.75s.74 1.14.74 1.83c0 .69-.27 1.34-.74 1.83-.47.48-1.1.75-1.76.75-.66 0-1.29-.27-1.76-.75S9.5 7.77 9.5 7.08c0-.69.27-1.34.74-1.83ZM12 12.11c-1.71 0-3.35.69-4.56 1.91a6.776 6.776 0 0 0-1.94 4.63c0 .2.11.38.29.46a14.558 14.558 0 0 0 12.42 0c.18-.08.29-.26.29-.46-.03-1.74-.72-3.4-1.94-4.63A6.385 6.385 0 0 0 12 12.11Zm0 7.39c-1.95 0-3.8-.41-5.49-1.15.1-1.37.68-2.66 1.63-3.62a5.413 5.413 0 0 1 3.85-1.62c1.44 0 2.82.58 3.85 1.62.96.96 1.53 2.25 1.63 3.62-1.73.76-3.6 1.16-5.49 1.15H12Z"/>
  </symbol>

  <symbol id="close" viewBox="0 0 24 24">
    <path d="M19.158 19.688c-.2 0-.4-.08-.55-.23l-5.67-5.67-5.67 5.67c-.3.3-.8.3-1.1 0-.3-.3-.3-.8 0-1.1l5.67-5.67-5.67-5.67a.767.767 0 0 1 0-1.1c.31-.3.79-.31 1.1 0l5.67 5.67 5.67-5.67c.3-.3.8-.3 1.1 0 .3.3.3.8 0 1.1l-5.67 5.67 5.67 5.67a.78.78 0 0 1-.55 1.33Z"/>
  </symbol>

  <symbol id="cup" viewBox="0 0 24 24">
    <path d="m.522.26 1.544 21.42v.06h13.298L16.91.327V.26H.522ZM14.818 21.14H2.617L1.458 5.095h.637l1.048 14.14c.006.074.04.143.093.194.054.051.125.08.198.08h.025a.287.287 0 0 0 .2-.1.296.296 0 0 0 .071-.216L2.683 5.095h13.293l-1.158 16.044Zm1.2-16.644H2.637l-.23-3.126a.306.306 0 0 0-.1-.198.297.297 0 0 0-.205-.077.299.299 0 0 0-.2.105.307.307 0 0 0-.07.216l.23 3.084h-.646L1.154.857H16.28l-.263 3.638Z"/>
    <path d="M5.23 8.062a.96.96 0 0 0 .538-.166.997.997 0 0 0 .147-1.513.965.965 0 0 0-1.056-.213.973.973 0 0 0-.436.362.994.994 0 0 0 .121 1.242.963.963 0 0 0 .686.288Zm0-1.371a.378.378 0 0 1 .352.24.393.393 0 0 1-.082.422.38.38 0 0 1-.653-.274.39.39 0 0 1 .112-.274.38.38 0 0 1 .27-.114ZM5.225 11.258a.993.993 0 0 0 .17.544.957.957 0 0 0 1.491.134.988.988 0 0 0 .202-1.072.98.98 0 0 0-.359-.439.96.96 0 0 0-1.434.454.996.996 0 0 0-.07.38Zm1.348 0a.392.392 0 0 1-.236.358.377.377 0 0 1-.416-.084.39.39 0 0 1 .27-.661.38.38 0 0 1 .27.113.39.39 0 0 1 .112.274ZM12.115 11.283a.96.96 0 0 0 .538-.165.997.997 0 0 0 .147-1.513.965.965 0 0 0-1.056-.214.972.972 0 0 0-.435.363.993.993 0 0 0 .12 1.241.962.962 0 0 0 .686.288Zm0-1.367a.379.379 0 0 1 .353.24.393.393 0 0 1-.085.424.38.38 0 0 1-.65-.28.39.39 0 0 1 .113-.272.38.38 0 0 1 .269-.112ZM8.738 9.429a.96.96 0 0 0 .538-.166.997.997 0 0 0 .147-1.513.965.965 0 0 0-1.056-.213.973.973 0 0 0-.435.362.994.994 0 0 0 .12 1.242.963.963 0 0 0 .686.288Zm0-1.371a.378.378 0 0 1 .353.24.393.393 0 0 1-.083.421.38.38 0 0 1-.652-.274.393.393 0 0 1 .23-.377c.048-.02.1-.031.152-.03v.02ZM6.89 15.005a.82.82 0 0 0 .144.445.803.803 0 0 0 .825.328.797.797 0 0 0 .405-.227.816.816 0 0 0 .164-.883.811.811 0 0 0-.295-.361.793.793 0 0 0-.443-.136.816.816 0 0 0-.568.252.84.84 0 0 0-.233.582Zm.8-.217a.212.212 0 0 1 .198.134.22.22 0 0 1-.047.236.213.213 0 0 1-.233.047.215.215 0 0 1-.131-.2c0-.058.022-.113.062-.154a.212.212 0 0 1 .151-.063ZM10.763 14.1a.814.814 0 0 0 .781-.498.844.844 0 0 0-.168-.92.818.818 0 0 0-.906-.181.825.825 0 0 0-.369.315.842.842 0 0 0 .107 1.038c.147.15.346.24.555.247Zm0-1.029c.057 0 .111.023.151.064a.218.218 0 0 1 0 .306.212.212 0 0 1-.303 0 .222.222 0 0 1-.065-.153.22.22 0 0 1 .064-.155.214.214 0 0 1 .153-.062ZM12.456 7.374a.813.813 0 0 0 .456-.14.845.845 0 0 0 .124-1.282.818.818 0 0 0-.895-.181.825.825 0 0 0-.368.307.842.842 0 0 0 .102 1.052.816.816 0 0 0 .58.244Zm0-1.029a.21.21 0 0 1 .187.035.215.215 0 0 1 .085.173.218.218 0 0 1-.085.173.212.212 0 0 1-.187.036.21.21 0 0 1-.25-.112.218.218 0 0 1 .152-.31.21.21 0 0 1 .098.005ZM4.424 20.093a.297.297 0 0 0-.17.3c.003.04.015.08.035.117a.304.304 0 0 0 .263.162.275.275 0 0 0 .131-.029 8.86 8.86 0 0 1 4.055-1c1.492.022 2.964.358 4.322.988a.292.292 0 0 0 .336-.044.301.301 0 0 0 .074-.336.307.307 0 0 0-.156-.166 11.207 11.207 0 0 0-4.576-1.042 9.43 9.43 0 0 0-4.314 1.05Z"/>
  </symbol>
  </defs>
</svg>
