<svg xmlns="http://www.w3.org/2000/svg" aria-hidden="true" style="position:absolute;width:0;height:0;overflow:hidden">
  <defs>
    <symbol id="icon-cup" viewBox="0 0 32 32">
      <path d="m5.565 2.783 1.901 26.363v.072h16.367l1.901-26.353v-.082H5.565zm17.596 25.696H8.144L6.718 8.732h.784l1.289 17.403c.008.092.049.177.115.24s.153.098.244.099h.03a.363.363 0 0 0 .247-.124.362.362 0 0 0 .087-.265L8.225 8.734h16.362l-1.426 19.747zm1.476-20.485H8.169l-.283-3.847c-.009-.094-.052-.181-.122-.244s-.16-.097-.252-.095c-.095.009-.183.055-.245.129s-.094.169-.088.266l.283 3.795h-.794l-.324-4.483h18.617l-.324 4.478z"/>
      <path d="M11.359 12.384c.236 0 .467-.071.663-.204s.349-.322.439-.543a1.229 1.229 0 0 0-.259-1.319 1.176 1.176 0 0 0-1.3-.262 1.207 1.207 0 0 0-.737 1.119c0 .321.126.629.35.856s.527.354.844.354zm0-1.687a.467.467 0 0 1 .434.294.482.482 0 0 1-.102.52.461.461 0 0 1-.724-.072.481.481 0 0 1 .059-.602.469.469 0 0 1 .332-.14zM11.354 16.318c.003.239.076.472.209.669s.321.35.539.439a1.178 1.178 0 0 0 1.296-.274 1.216 1.216 0 0 0 .248-1.319c-.091-.22-.245-.408-.442-.54a1.18 1.18 0 0 0-1.509.162 1.209 1.209 0 0 0-.342.864zm1.659 0a.47.47 0 0 1-.562.468.47.47 0 0 1-.37-.375.484.484 0 0 1 .2-.49.467.467 0 0 1 .594.06c.089.09.138.211.138.337zM19.834 16.349c.236 0 .467-.071.663-.204a1.214 1.214 0 0 0 .508-1.242 1.228 1.228 0 0 0-.326-.62 1.187 1.187 0 0 0-1.3-.262 1.199 1.199 0 0 0-.535.446 1.224 1.224 0 0 0 .148 1.529c.223.227.527.354.844.354zm0-1.683a.466.466 0 0 1 .435.296.477.477 0 0 1-.346.649.462.462 0 0 1-.482-.207.482.482 0 0 1 .063-.6.47.47 0 0 1 .331-.138zM15.677 14.066c.236 0 .467-.071.663-.204s.349-.322.439-.543A1.229 1.229 0 0 0 16.52 12a1.183 1.183 0 0 0-1.836.184 1.22 1.22 0 0 0 .149 1.528c.224.227.527.355.844.355zm0-1.687a.467.467 0 0 1 .434.294.482.482 0 0 1-.102.52.47.47 0 0 1-.513.104.481.481 0 0 1-.29-.441.488.488 0 0 1 .128-.354.461.461 0 0 1 .342-.149v.026zM13.402 20.929c.005.197.067.387.178.549a.98.98 0 0 0 1.776-.387 1.001 1.001 0 0 0-.423-1.019.972.972 0 0 0-.545-.167c-.264.007-.515.118-.699.309s-.287.449-.287.716zm.986-.267a.262.262 0 0 1 .243.165.27.27 0 0 1-.057.291.264.264 0 0 1-.449-.188c0-.071.028-.139.077-.189s.116-.078.186-.078zM18.17 19.816a1.008 1.008 0 0 0 .962-.614 1.042 1.042 0 0 0-.208-1.133c-.142-.146-.325-.245-.524-.285s-.405-.018-.591.063c-.186.08-.345.216-.454.389a1.042 1.042 0 0 0 .131 1.277c.181.186.426.295.684.304zm0-1.267c.07 0 .137.028.186.078a.27.27 0 0 1 0 .378c-.049.05-.116.078-.186.078s-.138-.028-.188-.078-.079-.118-.08-.189a.282.282 0 0 1 .079-.19.253.253 0 0 1 .189-.077zM20.253 11.538c.2 0 .396-.06.562-.173s.296-.273.372-.46a1.037 1.037 0 0 0-.219-1.118.999.999 0 0 0-1.556.155 1.038 1.038 0 0 0 .126 1.295c.189.192.447.3.715.3zm0-1.267c.039-.011.08-.013.12-.006s.078.024.11.049a.274.274 0 0 1 .105.213.27.27 0 0 1-.105.213.256.256 0 0 1-.23.043c-.039.011-.08.013-.12.006s-.078-.024-.11-.049a.274.274 0 0 1-.105-.213.27.27 0 0 1 .105-.213c.032-.025.07-.042.11-.049s.081-.005.12.006zM10.369 27.191a.372.372 0 0 0-.032.657.371.371 0 0 0 .351.019 10.9 10.9 0 0 1 4.99-1.231c1.837.027 3.648.441 5.319 1.216a.357.357 0 0 0 .413-.054.369.369 0 0 0 .092-.413.378.378 0 0 0-.192-.205 13.78 13.78 0 0 0-5.633-1.282 11.61 11.61 0 0 0-5.309 1.292z"/>
    </symbol>
    <symbol id="icon-logo" viewBox="0 0 32 32">
      <path fill="#9ebbff" d="M4.963 10.766c.211-.166.478.194.506.526s-.267 1.08-1.097 1.274c-.83.194-.928.706-.9 1.011s-.112.637-.408.568-.323-.526-.056-.956c.267-.43.942-.817 1.055-1.053s.028-.512.253-.609c.225-.097.52.152.492.388 0 0 .225-.222.197-.554-.018-.218-.148-.512-.042-.595zM10.419 12.789c.078-.222.633-.097.759.208s.084.54.211.748-.225.554-.485.512c-.26-.042-.162-.512-.162-.72s-.45-.388-.323-.748zM8.662 10.173c.193-.169.605.122.717.358s.014.859-.331.845c-.345-.014-.207-.501-.33-.603-.218-.18-.211-.464-.056-.6zM6.288 8.731c.136.211.035.499-.312.563s-.413-.222-.6-.157c-.188.065-.394.111-.478-.037s.009-.369.384-.369.755-.388 1.006 0zM4.105 10.749c.163 0 .295-.14.295-.313s-.132-.313-.295-.313c-.163 0-.295.14-.295.313s.132.313.295.313zM2.824 11.787c-.105-.052-.449.489-.214.554s.382-.471.214-.554zM1.907 13.393s.459.249.291.762-.534.448-.647.291c-.113-.157-.112-.369.075-.517s.281-.535.281-.535zM11.657 16.153s.141.208.07.582-.183 1.108.211 1.316c.394.208.548-.526.394-.748s.084-.983-.675-1.149zM12.156 19.491c.167 0 .302-.161.302-.36s-.135-.36-.302-.36-.302.161-.302.36c0 .199.135.36.302.36zM.294 19.629c.261-.133.478.083.506.485s.408.748.211.956c-.197.208-.426-.651-.605-.73-.275-.122-.492-.516-.112-.71z" style="fill:var(--color1, #9ebbff)"/>
      <path fill="#9ebbff" d="M11.368 20.031c-.245.249.081.507-.498 1.163-.241.273.178 1.09-.984 1.08 0 0-.675.609-1.35.693s-.956-.028-1.603.332c-.647.36-2.081-.249-2.672-.512s-.816-.291-1.322-.291c-.506 0-.309-.776-.675-1.108s-.788-.471-.816-.775c-.028-.305-.309-.443-.281-.914s-.45-.609-.506-1.191.253-.692.14-1.025c-.112-.332-.14-.609.028-.942a.751.751 0 0 1 .07-.115c.145-.203.283-.187.38-.521.113-.388-.197-.554.141-.72s.45.332.253.831c-.197.499-.45.969-.112 1.052s.253-.942.703-1.413c.45-.471.253-.581.844-1.052s.647-.277.844-.776c.197-.499.753-1.025 1.319-1.274s.819-.36.735-.776c-.085-.416.387-.415.405-.859s-.377-.748-.714-.637-.675.111-.563-.249c.113-.36.821-.332 1.156-.166s.616-.249 1.066.166c.45.415 1.041.554.956 1.524s-.169 1.301.197 1.357c.365.056.056-.443.056-.831s.647-.36.816-.056c.169.305-.056.831.113 1.025s.478.166.563.443c.084.277-.056 1.413.338 1.662s.309-.609.647-.346.422.734.225 1.205c-.131.315-.145 1.101-.069 1.777.037.335.096.643.173.854.232.637.245 1.135-.001 1.384z" style="fill:var(--color1, #9ebbff)"/>
      <path fill="#c6d7ff" d="M6.706 12.972c.739-.23 1.358 1.041 1.101 1.587s-.367 2.23.587 2.021c.954-.209.257-1.829.771-1.797s.294 1.515.624 1.985c.33.47 1.47 3.687-.366 4.808s-4.435 1.085-5.431.253c-.4-.335-.69-.684-.904-1.024a2.197 2.197 0 0 1-.204-.401c-.089-.241-.074-.326-.164-.567a2.24 2.24 0 0 0-.227-.444c-.198-.3-.288-.265-.474-.527a1.5 1.5 0 0 1-.277-.78c-.005-.104-.018-.395.108-.447.142-.059.326.245.515.182.099-.033.142-.148.169-.219.08-.212 0-.344-.038-.659-.03-.243-.065-.536.08-.783.024-.04.092-.173.319-.296.799-.434 1.516-.036 2.039-.831s.532-.848 1.023-1.056c.491-.209.05-.787.747-1.004z" style="fill:var(--color2, #c6d7ff)"/>
      <path fill="#407bff" d="M6.412 23.529c-.521 0-1.25-.211-2.202-.635-.58-.259-.786-.28-1.272-.28-.384 0-.466-.345-.532-.623-.047-.196-.095-.399-.225-.517a3.286 3.286 0 0 0-.37-.281c-.247-.17-.461-.317-.484-.571-.009-.101-.056-.184-.11-.28-.085-.152-.191-.34-.172-.652.011-.193-.081-.319-.199-.478-.129-.174-.276-.372-.307-.695a1.286 1.286 0 0 1 .106-.677c.05-.126.081-.202.04-.321-.102-.3-.168-.633.035-1.032a.919.919 0 0 1 .248-.31.528.528 0 0 0 .194-.306c.039-.135.017-.234-.004-.331-.032-.145-.072-.325.207-.463.14-.069.278-.058.377.031.179.16.196.559.043.949a9.434 9.434 0 0 1-.083.202c-.107.259-.228.551-.175.653.004.008.014.027.062.039l.009.001c.054-.019.12-.277.159-.432.079-.309.176-.695.418-.948.184-.192.252-.319.318-.442.094-.174.183-.339.537-.622.225-.18.376-.266.485-.329.168-.096.213-.122.322-.398.206-.521.774-1.072 1.382-1.339l.003-.001c.589-.26.726-.333.663-.643-.057-.278.091-.423.21-.539.1-.097.186-.181.192-.348a.532.532 0 0 0-.208-.452.378.378 0 0 0-.347-.067c-.216.071-.506.125-.658-.022-.061-.059-.121-.172-.058-.375a.482.482 0 0 1 .29-.295c.308-.129.776-.071 1.035.058.093.046.18.03.315 0 .207-.046.465-.104.779.186.095.088.201.165.302.24.375.275.763.561.692 1.38l-.031.335c-.073.767-.059.867.126.895a.256.256 0 0 0 .039.003c.008-.05-.026-.184-.048-.275-.034-.137-.073-.293-.073-.441 0-.192.12-.337.32-.388.24-.06.584.028.721.275.102.185.085.419.07.625-.011.15-.023.32.028.379.052.06.131.096.214.133.137.062.307.139.373.353.031.1.035.268.041.48.011.389.027.977.246 1.116.04.025.063.029.07.027.032-.009.078-.107.105-.166.052-.112.112-.24.239-.27.077-.018.159.006.242.07.377.294.48.821.262 1.343-.181.432-.118 1.931.107 2.546.258.706.249 1.227-.027 1.507-.064.065-.071.124-.08.25-.015.204-.037.482-.414.909-.047.053-.058.168-.07.289-.032.328-.081.822-.959.831-.152.13-.758.615-1.381.692a6.262 6.262 0 0 1-.496.039c-.36.019-.62.032-1.063.279a1.176 1.176 0 0 1-.579.127zm-4.87-8.259a.164.164 0 0 0-.069.02c-.112.055-.108.069-.079.2a.84.84 0 0 1 .001.447c-.072.249-.171.335-.266.418-.066.058-.128.112-.192.239-.155.305-.123.552-.022.851.068.2.011.344-.045.483s-.117.294-.09.568c.025.258.145.421.262.578.129.174.262.353.245.632-.014.243.062.379.143.523.061.11.125.223.139.373.013.144.176.256.382.398.123.084.262.18.395.301.184.167.243.417.296.637.074.312.122.439.298.439.505 0 .754.026 1.372.301 1.603.714 2.279.676 2.563.517.492-.274.791-.289 1.169-.309.139-.007.295-.015.478-.038.63-.078 1.277-.656 1.284-.662a.12.12 0 0 1 .081-.031h.001c.703.006.731-.283.764-.617.016-.16.031-.312.128-.422.325-.367.341-.591.355-.771.01-.132.02-.268.148-.397.201-.205.192-.665-.027-1.262-.248-.679-.307-2.228-.103-2.716.176-.422.102-.84-.188-1.067a.176.176 0 0 0-.037-.023c-.022.021-.055.092-.076.136-.056.12-.119.255-.257.295-.083.024-.173.006-.268-.055-.326-.206-.343-.818-.357-1.309-.005-.179-.01-.349-.031-.419-.032-.106-.109-.145-.243-.206a.81.81 0 0 1-.296-.194c-.116-.133-.101-.336-.085-.55.013-.183.027-.371-.041-.495-.076-.137-.3-.197-.45-.159-.139.035-.139.127-.139.158 0 .119.035.26.066.384.052.207.097.386-.007.497-.057.061-.142.083-.255.066-.432-.065-.398-.428-.329-1.152l.031-.333c.06-.688-.229-.9-.596-1.169-.107-.079-.218-.16-.323-.257-.221-.204-.371-.17-.561-.128-.142.032-.303.067-.477-.019-.207-.103-.599-.149-.832-.051-.083.035-.135.084-.154.146-.021.066-.022.118-.004.136.032.031.168.047.414-.034a.623.623 0 0 1 .568.103c.201.148.314.392.304.651s-.15.397-.263.507c-.118.115-.174.177-.144.324.103.508-.237.658-.801.906l-.003.001c-.546.24-1.074.749-1.255 1.209-.134.339-.222.4-.426.517-.103.059-.244.14-.455.308-.316.252-.39.389-.476.549-.07.13-.15.278-.356.493-.199.208-.288.56-.36.843-.042.166-.078.309-.131.415-.103.209-.251.208-.329.188a.316.316 0 0 1-.218-.161c-.102-.199.022-.5.167-.85.027-.065.055-.132.081-.199.132-.335.096-.619.02-.688-.005-.005-.011-.009-.018-.011s-.014-.004-.021-.003z" style="fill:var(--color3, #407bff)"/>
      <path fill="#407bff" d="M3.142 14.244a.405.405 0 0 1-.098-.012.378.378 0 0 1-.266-.231c-.095-.225-.036-.554.153-.858.154-.247.425-.472.665-.671.176-.146.343-.284.385-.373.037-.077.05-.163.063-.247.023-.153.05-.326.236-.406.127-.055.282-.03.413.065.066.048.12.111.158.182a.616.616 0 0 0 .064-.325c-.006-.067-.024-.145-.041-.221-.042-.186-.082-.361.032-.451a.27.27 0 0 1 .283-.037c.184.078.347.353.37.626.031.363-.289 1.163-1.166 1.368-.78.182-.855.652-.831.916.022.241-.051.472-.187.587a.359.359 0 0 1-.234.087zm1.281-2.648a.186.186 0 0 0-.07.014c-.09.039-.107.119-.13.27-.014.092-.03.196-.078.296-.059.124-.224.261-.432.433-.229.19-.489.405-.627.628-.155.249-.211.529-.14.697.029.068.076.11.141.126a.186.186 0 0 0 .172-.036c.092-.078.142-.254.125-.437-.024-.259.023-.884.969-1.105.772-.18 1.054-.869 1.028-1.18-.019-.224-.153-.431-.261-.477a.086.086 0 0 0-.098.013c-.025.029.011.188.031.274.019.082.038.166.045.245a.833.833 0 0 1-.223.624.089.089 0 0 1-.103.017.09.09 0 0 1-.051-.09c.01-.084-.043-.185-.133-.251a.28.28 0 0 0-.163-.059zM10.95 14.349a.405.405 0 0 1-.06-.005c-.291-.046-.264-.421-.245-.668.004-.053.008-.102.008-.14 0-.048-.062-.117-.123-.185-.122-.137-.29-.324-.196-.592.037-.106.142-.169.288-.172.23-.006.541.136.64.376.064.154.087.29.108.41.021.124.039.23.097.325.065.106.05.242-.041.374-.1.145-.288.277-.476.277zm-.312-1.585h-.01c-.032.001-.107.008-.122.053-.056.158.027.268.161.416.086.097.168.188.168.303 0 .044-.004.097-.008.153-.014.183-.034.459.094.48.11.017.271-.071.358-.197.023-.034.074-.12.036-.182a1.044 1.044 0 0 1-.12-.387 1.648 1.648 0 0 0-.097-.373c-.066-.158-.291-.265-.458-.265zM9.06 11.465h-.015c-.297-.012-.33-.292-.35-.46-.007-.055-.017-.146-.035-.164a.53.53 0 0 1-.2-.399.438.438 0 0 1 .142-.336c.074-.065.174-.087.29-.064.234.047.484.271.569.45.088.183.071.559-.083.787-.082.121-.191.185-.317.185zm-.254-1.253a.12.12 0 0 0-.084.028.26.26 0 0 0-.082.2c.002.1.05.194.136.265.072.059.085.166.098.279.024.202.049.297.178.302.068.003.125-.032.175-.105.114-.17.134-.479.07-.613-.066-.137-.268-.317-.442-.352a.272.272 0 0 0-.049-.005zM5.876 9.393a.558.558 0 0 1-.339-.123c-.073-.05-.097-.061-.132-.049-.135.047-.453.156-.586-.077-.027-.046-.041-.098-.04-.151s.015-.105.042-.15c.044-.075.163-.201.461-.201.114 0 .236-.044.355-.086.234-.083.524-.187.727.127a.423.423 0 0 1 .037.408c-.065.148-.214.254-.409.29a.642.642 0 0 1-.116.011zm-.446-.355c.086 0 .153.046.211.086.084.057.163.112.319.083.137-.025.235-.092.277-.186a.254.254 0 0 0-.024-.242c-.119-.185-.258-.146-.513-.055-.133.047-.271.096-.416.096-.152 0-.263.041-.306.112a.123.123 0 0 0 0 .124c.041.072.155.071.37-.003a.239.239 0 0 1 .083-.015zM4.105 10.838c-.213 0-.386-.18-.386-.402s.173-.402.386-.402c.213 0 .386.18.386.402s-.173.402-.386.402zm0-.626c-.113 0-.205.101-.205.224s.092.224.205.224c.113 0 .205-.101.205-.224s-.092-.224-.205-.224zM2.65 12.435a.237.237 0 0 1-.065-.009.194.194 0 0 1-.142-.153c-.033-.174.131-.446.255-.537.074-.055.131-.046.166-.029.144.072.148.292.077.473-.064.163-.172.255-.291.255zm.147-.55c-.066.056-.182.238-.176.344.001.023.006.024.014.026.052.015.108-.062.139-.139a.367.367 0 0 0 .023-.23zM1.786 14.647a.385.385 0 0 1-.31-.151.45.45 0 0 1 .092-.638c.133-.105.226-.387.25-.487.003-.013.01-.026.018-.036s.02-.019.033-.024c.013-.006.027-.008.04-.008s.027.004.04.011a.719.719 0 0 1 .333.867c-.119.362-.326.444-.439.461a.377.377 0 0 1-.058.004zm.171-1.107c-.047.137-.137.349-.275.458-.161.127-.132.293-.058.396a.206.206 0 0 0 .193.073c.124-.018.228-.139.294-.34a.526.526 0 0 0-.155-.587zM12.072 18.176a.384.384 0 0 1-.176-.047c-.426-.225-.351-.912-.257-1.41.062-.329-.055-.514-.057-.516a.089.089 0 0 1 .042-.132.095.095 0 0 1 .053-.004c.598.131.644.604.675.917.011.114.022.222.055.269.133.191.084.614-.094.81a.324.324 0 0 1-.241.114zm-.262-1.879c.027.109.043.262.007.454-.129.685-.073 1.095.165 1.221.08.042.141.034.197-.028.129-.142.158-.478.079-.59-.059-.085-.071-.209-.086-.353-.026-.265-.055-.561-.362-.704zM12.156 19.58c-.216 0-.393-.201-.393-.449s.176-.449.393-.449.393.201.393.449-.176.449-.393.449zm0-.72c-.117 0-.212.122-.212.271s.095.271.212.271c.117 0 .212-.122.212-.271s-.095-.271-.212-.271zM.947 21.191l-.024-.002c-.143-.021-.244-.221-.362-.454-.055-.11-.148-.293-.192-.315-.208-.093-.364-.301-.369-.494-.004-.157.086-.29.252-.375a.374.374 0 0 1 .361-.005c.157.087.258.292.277.563.011.154.08.302.147.444.096.204.195.415.04.578a.176.176 0 0 1-.13.061zm-.503-1.512c-.034 0-.07.01-.108.029-.105.054-.157.125-.155.213.003.125.119.273.263.337.097.043.169.179.28.398.058.114.163.323.22.355l.001-.002c.069-.072.017-.192-.072-.382-.07-.15-.15-.32-.163-.506-.014-.207-.084-.364-.185-.42a.167.167 0 0 0-.082-.021zM7.144 18.667c.072.354-.158.726-.492.866-.467.209-1.053-.037-1.194-.528a.72.72 0 0 1-.017-.338.052.052 0 0 1 .051-.042c.012 0 .024.004.033.011.01.007.016.018.019.029.077.36.38.629.743.625.36-.003.655-.268.733-.624.013-.066.111-.065.123 0z" style="fill:var(--color3, #407bff)"/>
      <path fill="#fff" d="M3.102 19.208c.326-.061.525-.443.445-.854s-.408-.693-.734-.631c-.325.061-.525.443-.445.854s.408.693.734.631zM3.12 17.317c.336.103.675-.982 1.271-1.227s.989-1.018 1.172-1.518c.183-.5.933-.826.775-1.175s-.845-.068-1.25.464-.224 1.087-.834 1.322c-.61.235-1.83 1.921-1.134 2.135z" opacity=".5" style="fill:var(--color4, #fff)"/>
      <path fill="#407bff" d="M11.061 19.993c-.231.225.076.458-.468 1.05-.227.246.167.984-.925.975 0 0-.634.55-1.269.625s-.899-.025-1.507.3c-.608.325-1.956-.225-2.511-.463s-.766-.263-1.242-.263-.291-.7-.635-1c-.344-.3-.74-.425-.767-.7s-.291-.4-.264-.825c.026-.425-.423-.55-.476-1.075s.238-.625.132-.925-.132-.55.027-.85a.76.76 0 0 1 .066-.104c.007.17.016.34.075.446.061.109.142.21.179.328.096.304-.119.612-.15.928-.058.584.489 1.035.864 1.502.333.416.572.927 1.043 1.199.524.303 1.203.225 1.776.019s1.097-.529 1.681-.706c.676-.206 1.401-.209 2.111-.174.511.025 1.094.045 1.449-.303.204-.2.286-.483.342-.756.107-.524.148-1.06.12-1.594l.186.347c.035.302.09.581.163.771.219.575.23 1.025 0 1.25z" opacity=".2" style="fill:var(--color3, #407bff)"/>
      <path fill="#407bff" d="M7.973 16.292c.386-.039.743.378.796.93s-.216 1.031-.602 1.07c-.386.039-.743-.378-.796-.93s.216-1.031.602-1.07z" style="fill:var(--color3, #407bff)"/>
      <path fill="#fff" d="M8 16.523c.123.051.176.239.118.42s-.204.287-.327.237c-.123-.051-.176-.239-.118-.42s.204-.287.327-.237z" style="fill:var(--color4, #fff)"/>
      <path fill="#8baeff" d="M8.414 17.71c.058.043.065.146.016.231s-.137.12-.195.078c-.058-.042-.065-.146-.016-.231s.137-.12.195-.078z" style="fill:var(--color5, #8baeff)"/>
      <path fill="#407bff" d="M4.661 16.292c-.386-.039-.743.378-.796.93s.216 1.031.602 1.07c.386.039.743-.378.796-.93s-.216-1.031-.602-1.07z" style="fill:var(--color3, #407bff)"/>
      <path fill="#fff" d="M4.634 16.523c-.123.051-.176.239-.118.42s.204.287.327.237.176-.239.118-.42c-.058-.181-.204-.287-.327-.237z" style="fill:var(--color4, #fff)"/>
      <path fill="#8baeff" d="M4.22 17.71c-.058.043-.065.146-.016.231s.137.12.195.078.065-.146.016-.231c-.05-.085-.137-.12-.195-.078z" style="fill:var(--color5, #8baeff)"/>
      <path fill="#407bff" d="M15.24 12.382v2.676h-.55v-2.676h.55zm.823 0v.432h-2.184v-.432h2.184zm.314 0h.998c.205 0 .381.031.528.092.148.061.262.152.342.272s.119.268.119.443a.842.842 0 0 1-.074.37.687.687 0 0 1-.204.255 1.078 1.078 0 0 1-.307.162l-.175.092h-.868l-.004-.43h.645c.097 0 .177-.017.241-.051s.111-.082.143-.143a.441.441 0 0 0 .05-.213c0-.086-.016-.16-.048-.222s-.08-.11-.145-.143a.535.535 0 0 0-.244-.05h-.447v2.245h-.551v-2.676zm1.497 2.677-.61-1.193.583-.004.618 1.171v.026h-.59zm2.003-2.219-.728 2.219h-.586l.994-2.676h.373l-.053.458zm.605 2.219-.73-2.219-.059-.458h.377l1 2.676h-.588zm-.033-.996v.432h-1.414v-.432h1.414zm2.388.108h.55c-.011.18-.061.34-.149.48a.882.882 0 0 1-.366.327 1.245 1.245 0 0 1-.563.118c-.172 0-.325-.029-.461-.088a.987.987 0 0 1-.349-.257c-.096-.111-.169-.246-.219-.404s-.075-.335-.075-.531v-.186c0-.196.026-.373.077-.531.053-.159.127-.295.224-.406.098-.111.215-.197.351-.257s.288-.09.456-.09c.223 0 .411.04.564.121a.878.878 0 0 1 .358.335c.086.142.137.304.154.485h-.551a.722.722 0 0 0-.064-.274.37.37 0 0 0-.167-.171.629.629 0 0 0-.294-.059c-.092 0-.172.017-.241.051s-.126.086-.173.156a.777.777 0 0 0-.105.265 1.831 1.831 0 0 0-.033.371v.189c0 .138.01.26.031.366a.85.85 0 0 0 .096.265.451.451 0 0 0 .169.162c.07.036.154.053.252.053.115 0 .21-.018.285-.055s.132-.091.171-.164a.652.652 0 0 0 .072-.27zm1.463-1.789v2.676h-.551v-2.676h.551zm1.603 0-1.061 1.322-.612.658-.099-.522.414-.566.682-.892h.676zm-.627 2.677-.789-1.237.408-.342 1.033 1.579h-.653zm2.662-.43v.43h-1.425v-.43h1.425zm-1.244-2.247v2.676h-.551v-2.676h.551zm1.058 1.09v.419h-1.239v-.419h1.239zm.184-1.09v.432h-1.423v-.432h1.423zm.324 0h.998c.205 0 .381.031.528.092.148.061.262.152.342.272s.119.268.119.443a.842.842 0 0 1-.074.37.687.687 0 0 1-.204.255 1.078 1.078 0 0 1-.307.162l-.175.092h-.868l-.004-.43h.645c.097 0 .177-.017.241-.051s.111-.082.143-.143a.441.441 0 0 0 .05-.213c0-.086-.016-.16-.048-.222s-.08-.11-.145-.143a.535.535 0 0 0-.244-.05h-.447v2.245h-.551v-2.676zm1.496 2.677-.61-1.193.583-.004.618 1.171v.026h-.59zM16.241 18.05v.127c0 .203-.028.386-.083.548s-.133.3-.233.414a1.018 1.018 0 0 1-.36.259c-.138.06-.292.09-.461.09-.168 0-.322-.03-.461-.09a1.026 1.026 0 0 1-.36-.259 1.2 1.2 0 0 1-.237-.414 1.696 1.696 0 0 1-.083-.548v-.127c0-.205.028-.387.083-.548.055-.162.133-.3.233-.414.102-.114.222-.201.36-.261.14-.06.293-.09.461-.09.169 0 .323.03.461.09.14.06.26.147.36.261.102.114.18.252.235.414.056.161.085.343.085.548zm-.557.127v-.131c0-.142-.013-.267-.039-.375s-.064-.199-.114-.272a.49.49 0 0 0-.184-.165c-.072-.038-.155-.057-.248-.057s-.176.019-.248.057a.5.5 0 0 0-.182.165c-.049.074-.086.164-.112.272s-.039.233-.039.375v.131c0 .141.013.266.039.375a.847.847 0 0 0 .114.274.504.504 0 0 0 .432.224.524.524 0 0 0 .248-.057.5.5 0 0 0 .182-.167.868.868 0 0 0 .112-.274c.026-.109.039-.234.039-.375zm1.506-1.402v2.676h-.551v-2.676h.551zm1.066 1.143v.43h-1.217v-.43h1.217zm.129-1.143v.432h-1.346v-.432h1.346zm1.902 2.251.533-2.252h.298l.068.375-.568 2.301h-.32l-.011-.425zm-.273-2.251.441 2.252-.037.425h-.357l-.594-2.676h.546zm1.641 2.242.436-2.243h.546l-.592 2.676h-.357l-.033-.434zm-.369-2.242.537 2.261-.015.415h-.32l-.572-2.303.074-.373h.296zm2.658.457-.728 2.219h-.586l.994-2.676h.373l-.053.458zm.604 2.219-.73-2.219-.059-.458h.377l1 2.676h-.588zm-.033-.996v.432h-1.414v-.432h1.414zm1.839-1.68v2.676h-.55v-2.676h.55zm.823 0v.432h-2.184v-.432h2.184zm2.11 2.246v.43h-1.425v-.43h1.425zm-1.244-2.246v2.676h-.551v-2.676h.551zm1.059 1.09v.419h-1.239v-.419h1.239zm.184-1.09v.432h-1.423v-.432h1.423zm.323 0h.998c.205 0 .381.031.528.092.148.061.262.152.342.272s.12.268.12.443a.85.85 0 0 1-.073.369.699.699 0 0 1-.204.256 1.078 1.078 0 0 1-.307.162l-.175.092h-.868l-.004-.43h.645c.097 0 .177-.017.241-.051s.112-.082.143-.143a.441.441 0 0 0 .05-.213c0-.086-.016-.16-.048-.222s-.08-.11-.145-.143a.535.535 0 0 0-.244-.05h-.447v2.244h-.551v-2.676zm1.496 2.676-.61-1.193.583-.004.618 1.171v.026h-.59z" style="fill:var(--color3, #407bff)"/>
    </symbol>
    <symbol id="icon-close" viewBox="0 0 32 32">
      <path stroke-linecap="round" stroke-linejoin="round" stroke-width="2" d="M8 24 24 8M8 8l16 16"/>
    </symbol>
    <symbol id="icon-upload" viewBox="0 0 32 32">
      <path stroke-linecap="round" stroke-linejoin="round" stroke-width="1.333" d="M4 22v3a3.004 3.004 0 0 0 3 3h18a3.004 3.004 0 0 0 3-3v-3M10 10l6-6m0 0 6 6m-6-6v18"/>
    </symbol>
    <symbol id="icon-plus-in-a-circle" viewBox="0 0 32 32">
      <path stroke-linecap="round" stroke-linejoin="round" stroke-width="1.333" d="M16 12v8m4-4h-8m16 0a12 12 0 1 1-24.003.002A12 12 0 0 1 28.002 16z"/>
    </symbol>
    <symbol id="icon-plus" viewBox="0 0 32 32">
      <path stroke-linecap="round" stroke-linejoin="round" stroke-width="1.333" d="M16 8v16m8-8H8"/>
    </symbol>
    <symbol id="icon-correction" viewBox="0 0 32 32">
      <path stroke-linecap="round" stroke-linejoin="round" stroke-width="1.333" d="m22.483 5.983 2.249-2.251a2.5 2.5 0 0 1 3.536 3.536L14.109 21.427a6.002 6.002 0 0 1-2.529 1.507L8 24.001l1.067-3.58a5.992 5.992 0 0 1 1.507-2.529L22.483 5.984zm0 0L26 9.5m-2 9.167V25a3.004 3.004 0 0 1-3 3H7a3.004 3.004 0 0 1-3-3V11a3.004 3.004 0 0 1 3-3h6.333"/>
    </symbol>
    <symbol id="icon-trash" viewBox="0 0 32 32">
      <path stroke-linecap="round" stroke-linejoin="round" stroke-width="1.333" d="m19.653 12-.461 12m-6.384 0-.461-12m13.29-4.28c.456.069.909.143 1.363.221m-1.363-.221-1.424 18.511A3 3 0 0 1 21.221 29H10.778a2.996 2.996 0 0 1-2.992-2.769L6.362 7.72m19.275 0A63.917 63.917 0 0 0 21 7.191M6.363 7.72c-.456.068-.909.141-1.363.22m1.363-.22A63.917 63.917 0 0 1 11 7.191m10 0V5.97c0-1.573-1.213-2.885-2.787-2.935a69.515 69.515 0 0 0-4.427 0c-1.573.049-2.787 1.363-2.787 2.935v1.221m10.001 0a64.947 64.947 0 0 0-10 0"/>
    </symbol>
    <symbol id="icon-closed-eye" viewBox="0 0 32 32">
      <path stroke-linecap="round" stroke-linejoin="round" stroke-width="1.333" d="M5.307 10.964A13.978 13.978 0 0 0 2.579 16C4.302 21.784 9.659 26 16 26c1.324 0 2.604-.184 3.817-.527M8.304 8.304A13.936 13.936 0 0 1 16 6c6.341 0 11.697 4.216 13.42 9.997a14.033 14.033 0 0 1-5.724 7.699M8.304 8.304 4 4m4.304 4.304 4.867 4.867m10.525 10.525L28 28m-4.304-4.304-4.867-4.867A3.996 3.996 0 0 0 20 16a4.001 4.001 0 0 0-4-4 4.017 4.017 0 0 0-2.829 1.172m5.657 5.656-5.655-5.655"/>
    </symbol>
    <symbol id="icon-eye" viewBox="0 0 32 32">
      <path stroke-linecap="round" stroke-linejoin="round" stroke-width="1.333" d="M2.715 16.429a1.35 1.35 0 0 1 0-.852C4.564 10.013 9.814 6 16 6c6.184 0 11.431 4.009 13.284 9.571.093.276.093.575 0 .852C27.436 21.987 22.187 26 16 26c-6.184 0-11.432-4.009-13.285-9.571z"/>
      <path stroke-linecap="round" stroke-linejoin="round" stroke-width="1.333" d="M20 16a4.003 4.003 0 0 1-4 4 4.003 4.003 0 0 1-4-4 4.003 4.003 0 0 1 4-4 4.003 4.003 0 0 1 4 4z"/>
    </symbol>
    <symbol id="icon-settings" viewBox="0 0 32 32">
      <path stroke-linecap="round" stroke-linejoin="round" stroke-width="1.333" d="M12.792 5.253A1.5 1.5 0 0 1 14.272 4h3.457c.733 0 1.36.531 1.48 1.253l.284 1.708c.084.499.417.915.86 1.16.099.053.196.111.293.169.432.261.96.343 1.433.165l1.623-.608a1.498 1.498 0 0 1 1.826.654l1.728 2.996c.177.308.24.668.177 1.018s-.249.665-.523.89l-1.337 1.103c-.391.32-.584.817-.575 1.323.002.113.002.227 0 .34-.009.504.184 1 .573 1.32l1.34 1.104c.565.467.712 1.272.347 1.907l-1.731 2.996a1.499 1.499 0 0 1-1.826.655l-1.623-.608c-.473-.177-1-.096-1.435.165a8.597 8.597 0 0 1-.293.171c-.441.244-.775.66-.859 1.159l-.284 1.707a1.5 1.5 0 0 1-1.48 1.255h-3.459c-.733 0-1.36-.531-1.48-1.253l-.284-1.708c-.083-.499-.416-.915-.859-1.16a9.308 9.308 0 0 1-.293-.169c-.433-.261-.96-.343-1.435-.165l-1.623.608a1.5 1.5 0 0 1-1.825-.653L4.74 20.506a1.5 1.5 0 0 1 .347-1.908l1.339-1.103c.389-.32.583-.817.573-1.323a9.634 9.634 0 0 1 0-.34c.009-.504-.184-1-.573-1.32l-1.339-1.104a1.502 1.502 0 0 1-.347-1.907l1.729-2.996a1.497 1.497 0 0 1 1.826-.654l1.621.608c.475.177 1.001.096 1.435-.165.096-.059.195-.116.293-.171.443-.244.776-.66.859-1.159l.285-1.708z"/>
      <path stroke-linecap="round" stroke-linejoin="round" stroke-width="1.333" d="M20 16a4.003 4.003 0 0 1-4 4 4.003 4.003 0 0 1-4-4 4.003 4.003 0 0 1 4-4 4.003 4.003 0 0 1 4 4z"/>
    </symbol>
    <symbol id="icon-loguot" viewBox="0 0 32 32">
      <path stroke-linecap="round" stroke-linejoin="round" stroke-width="1.333" d="M21 12V7a3.004 3.004 0 0 0-3-3h-8a3.004 3.004 0 0 0-3 3v18a3.004 3.004 0 0 0 3 3h8a3.004 3.004 0 0 0 3-3v-5m4 0 4-4m0 0-4-4m4 4H12"/>
    </symbol>
    <symbol id="icon-avatar" viewBox="0 0 32 32">
      <path stroke-width="1.333" d="M31.333 16c0 8.468-6.865 15.333-15.333 15.333S.667 24.468.667 16 7.532.667 16 .667 31.333 7.532 31.333 16z"/>
      <path stroke-linecap="round" stroke-linejoin="round" stroke-width="1.333" d="M20.001 9.436c0 1.088-.421 2.132-1.172 2.901S17.061 13.539 16 13.539c-1.061 0-2.079-.432-2.829-1.202s-1.172-1.813-1.172-2.901c0-1.088.421-2.132 1.172-2.901S14.939 5.333 16 5.333c1.061 0 2.079.432 2.829 1.202s1.172 1.813 1.172 2.901zM8 24.881c.034-2.153.892-4.205 2.389-5.715S13.901 16.81 16 16.81c2.099 0 4.115.846 5.611 2.356s2.355 3.562 2.389 5.715a18.732 18.732 0 0 1-8 1.785c-2.855 0-5.564-.639-8-1.785z"/>
    </symbol>
    <symbol id="icon-calendar" viewBox="0 0 32 32">
      <path stroke-linecap="round" stroke-linejoin="round" stroke-width="1.6" d="M9 4v3m14-3v3M4 25V10a3.004 3.004 0 0 1 3-3h18a3.004 3.004 0 0 1 3 3v15M4 25a3.004 3.004 0 0 0 3 3h18a3.004 3.004 0 0 0 3-3M4 25V15a3.004 3.004 0 0 1 3-3h18a3.004 3.004 0 0 1 3 3v10m-12-8h.011v.011H16V17zm0 3h.011v.011H16V20zm0 3h.011v.011H16V23zm-3-3h.011v.011H13V20zm0 3h.011v.011H13V23zm-3-3h.011v.011H10V20zm0 3h.011v.011H10V23zm9-6h.011v.011H19V17zm0 3h.011v.011H19V20zm0 3h.011v.011H19V23zm3-6h.011v.011H22V17zm0 3h.011v.011H22V20z"/>
    </symbol>
    <symbol id="icon-tools" viewBox="0 0 32 32">
      <path stroke-linecap="round" stroke-linejoin="round" stroke-width="1.6" d="M15.227 20.227 23 28a3.535 3.535 0 0 0 5.996-2.513 3.535 3.535 0 0 0-.995-2.488l-7.836-7.836m-4.938 5.064 3.328-4.04c.423-.512.987-.835 1.611-1.021.733-.219 1.551-.251 2.324-.187a6.006 6.006 0 0 0 6.486-5.404 6.013 6.013 0 0 0-.504-3.045l-4.368 4.369a4.01 4.01 0 0 1-3-3l4.368-4.368a6.008 6.008 0 0 0-7.912 2.943 6.01 6.01 0 0 0-.536 3.039c.121 1.435-.095 3.019-1.205 3.933l-.136.113m-.456 6.668L9.02 27.764a3.403 3.403 0 0 1-2.46 1.239A3.4 3.4 0 0 1 3 25.442a3.39 3.39 0 0 1 1.239-2.46l9.116-7.507-5.476-5.476H6l-3-5 2-2 5 3v1.879l5.68 5.68-2.327 1.916M24.5 24.5 21 21M6.489 25.5H6.5v.011h-.011V25.5z"/>
    </symbol>
    <symbol id="icon-check-mark" viewBox="0 0 32 32">
      <path d="M16.706 21.707a1.002 1.002 0 0 1-1.414 0l-10-10a.996.996 0 0 1 .025-1.388 1.002 1.002 0 0 1 1.388-.025l9.293 9.293 9.293-9.293a1.013 1.013 0 0 1 .714-.318.993.993 0 0 1 .725.293.992.992 0 0 1 .293.725 1.001 1.001 0 0 1-.318.714l-10 10z"/>
    </symbol>
    <symbol id="icon-minus" viewBox="0 0 32 32">
      <path d="M7 16a.997.997 0 0 1 1-1h16a.997.997 0 0 1 1 1 .997.997 0 0 1-1 1H8a.997.997 0 0 1-1-1z"/>
    </symbol>
    <symbol id="icon-Vector" viewBox="0 0 32 32">
      <path stroke-linecap="round" stroke-linejoin="round" stroke-width="1.778" d="M3.778 2.667v16.667a3.333 3.333 0 0 0 3.333 3.333h3.333m-6.666-20H1.556m2.222 0h24.444m-17.778 20h11.111m-11.111 0-1.482 4.444m19.26-24.444h2.222m-2.222 0v16.667a3.333 3.333 0 0 1-3.333 3.333h-3.333m0 0 1.482 4.444m-14.075 0h14.074m-14.074 0-.741 2.222m14.815-2.222.741 2.222M11.556 14.889v2.222M16 11.556v5.556m4.444-8.89v8.889"/>
    </symbol>
    <symbol id="icon-left" viewBox="0 0 32 32">
      <path d="M8.448 9.152a1.199 1.199 0 0 1 0 1.696L4.496 14.8H30.4a1.201 1.201 0 1 1 0 2.4H4.496l3.952 3.952a1.2 1.2 0 1 1-1.696 1.696l-6-6a1.199 1.199 0 0 1 0-1.696l6-6a1.199 1.199 0 0 1 1.696 0z"/>
    </symbol>
    <symbol id="icon-left-check-mark" viewBox="0 0 32 32">
      <path d="M10.294 16.707a1.002 1.002 0 0 1 0-1.414l10-10a1.013 1.013 0 0 1 .714-.318.993.993 0 0 1 .725.293.992.992 0 0 1 .293.725 1.001 1.001 0 0 1-.318.714L12.415 16l9.293 9.293a1.013 1.013 0 0 1 .318.714.993.993 0 0 1-.293.725.992.992 0 0 1-.725.292 1.001 1.001 0 0 1-.714-.318l-10-10z"/>
    </symbol>
    <symbol id="icon-right-check-mark" viewBox="0 0 32 32">
      <path d="M23.989 16.989a1.399 1.399 0 0 0 0-1.978l-14-14A1.389 1.389 0 0 0 8.99.566a1.394 1.394 0 0 0-1.015.41 1.416 1.416 0 0 0-.41 1.015 1.386 1.386 0 0 0 .445.999l13.011 13.011L8.01 29.012a1.389 1.389 0 0 0-.445.999 1.394 1.394 0 0 0 .41 1.015 1.412 1.412 0 0 0 1.56.289c.172-.077.326-.187.454-.324l14-14z"/>
    </symbol>
  </defs>
</svg>
